#!OML:ASF F:\VICON\USERDATA\INSTALL\rory3\rory3.ASF
:FULLY-SPECIFIED
:DEGREES
253
root 2.53357 18.8131 3.60029 -162.909 -17.259 173.683
lowerback 12.1989 0.164697 -2.0123
upperback 2.43877 -0.198595 0.933287
thorax -4.27369 -0.15701 2.14908
lowerneck -16.7939 -1.61826 -10.7642
upperneck 36.1099 -2.74822 2.54883
head 15.7911 -3.15237 2.24289
rclavicle -1.98785e-014 2.46493e-014
rhumerus 10.1778 -6.43344 -65.4618
rradius 92.9931
rwrist -2.94837
rhand -34.9409 -3.93792
rfingers 7.12502
rthumb -8.08773 -33.7632
lclavicle -1.98785e-014 2.46493e-014
lhumerus 26.029 -2.89431 82.0025
lradius 74.2778
lwrist 36.908
lhand -12.6115 31.5679
lfingers 7.12502
lthumb 13.4676 61.1125
rfemur -16.1697 -6.50233 20.2612
rtibia 23.8985
rfoot -8.133 -8.06613
rtoes 8.42182
lfemur -75.741 -3.07475 -32.982
ltibia 81.7966
lfoot -20.3006 -8.36391
ltoes -5.81441
254
root 2.5026 18.8619 3.53271 -162.666 -17.1826 173.573
lowerback 12.2009 0.110628 -2.17631
upperback 2.39188 -0.288733 0.91089
thorax -4.31855 -0.196925 2.23274
lowerneck -16.7429 -1.59523 -10.6962
upperneck 36.0461 -2.70364 2.45078
head 15.7405 -3.13566 2.19692
rclavicle 6.04305e-014 -1.35174e-014
rhumerus 9.4173 -6.30899 -65.5292
rradius 93.7365
rwrist -2.96206
rhand -35.0312 -3.82177
rfingers 7.12502
rthumb -8.17492 -33.6436
lclavicle 6.04305e-014 -1.35174e-014
lhumerus 26.8056 -2.91672 81.6867
lradius 74.3147
lwrist 37.1732
lhand -12.5897 31.38
lfingers 7.12502
lthumb 13.4886 60.9232
rfemur -15.7796 -6.23941 20.0034
rtibia 23.0571
rfoot -7.43154 -8.47301
rtoes 8.64533
lfemur -75.3982 -3.12084 -33.0459
ltibia 81.4061
lfoot -20.6209 -8.17832
ltoes -5.2853
255
root 2.47244 18.9206 3.46267 -162.499 -17.0275 173.51
lowerback 12.2614 0.0884551 -2.37141
upperback 2.35943 -0.344518 0.881424
thorax -4.38199 -0.220213 2.32186
lowerneck -16.8137 -1.54491 -10.7154
upperneck 36.2033 -2.71085 2.61639
head 15.8366 -3.13161 2.26927
rclavicle 6.32135e-014 -7.95139e-016
rhumerus 8.66586 -6.19432 -65.7107
rradius 94.3283
rwrist -2.83924
rhand -35.1356 -3.68782
rfingers 7.12502
rthumb -8.27566 -33.5057
lclavicle 6.32135e-014 -7.95139e-016
lhumerus 27.4251 -2.92407 81.4263
lradius 74.4041
lwrist 37.2908
lhand -12.1652 31.194
lfingers 7.12502
lthumb 13.8978 60.7096
rfemur -15.2861 -5.87043 19.7613
rtibia 22.1379
rfoot -6.62511 -9.03778
rtoes 9.12717
lfemur -74.8984 -3.03215 -33.0854
ltibia 80.916
lfoot -19.7507 -8.39462
ltoes -0.125064
256
root 2.43667 18.9892 3.39381 -162.276 -16.804 173.522
lowerback 12.1963 0.0388634 -2.48397
upperback 2.3323 -0.421001 0.873077
thorax -4.36944 -0.255256 2.38819
lowerneck -16.8687 -1.45829 -10.7719
upperneck 36.3558 -2.63414 2.72273
head 15.9198 -3.10797 2.33783
rclavicle -1.86858e-014 -5.56597e-015
rhumerus 7.72294 -5.94236 -65.9245
rradius 95.0109
rwrist -2.74592
rhand -35.4532 -3.39295
rfingers 7.12502
rthumb -8.58215 -33.1985
lclavicle -1.86858e-014 -5.56597e-015
lhumerus 27.9175 -2.8473 81.155
lradius 74.5784
lwrist 37.2745
lhand -11.6585 31.3325
lfingers 7.12502
lthumb 14.3861 60.814
rfemur -14.8849 -5.41754 19.5489
rtibia 21.1411
rfoot -5.65398 -9.78476
rtoes 10.0167
lfemur -74.4068 -2.92684 -33.0591
ltibia 80.3337
lfoot -19.5384 -8.48584
ltoes 1.71927
257
root 2.39907 19.061 3.32591 -161.986 -16.5665 173.565
lowerback 12.1523 -0.0138545 -2.52741
upperback 2.2346 -0.488356 0.869787
thorax -4.4432 -0.282328 2.41997
lowerneck -16.9621 -1.36697 -10.7487
upperneck 36.4949 -2.49878 2.65567
head 15.9976 -3.07144 2.32753
rclavicle 5.1684e-015 3.18055e-015
rhumerus 6.51346 -5.6867 -66.1428
rradius 95.7534
rwrist -2.6654
rhand -35.7662 -2.84107
rfingers 7.12502
rthumb -8.88421 -32.634
lclavicle 5.1684e-015 3.18055e-015
lhumerus 28.2353 -2.85238 80.823
lradius 74.8327
lwrist 37.5008
lhand -11.4886 31.5054
lfingers 7.12502
lthumb 14.5498 60.9752
rfemur -14.5874 -4.8921 19.3405
rtibia 20.1014
rfoot -4.67082 -10.7776
rtoes 11.4772
lfemur -73.9663 -2.86013 -32.9954
ltibia 79.6783
lfoot -19.6051 -8.42034
ltoes 1.77258
258
root 2.35976 19.1415 3.25428 -161.758 -16.3313 173.537
lowerback 12.0769 -0.0345874 -2.58622
upperback 2.2351 -0.523491 0.80766
thorax -4.39907 -0.299455 2.39255
lowerneck -17.1271 -1.31108 -10.7903
upperneck 36.5714 -2.43169 2.79474
head 16.0708 -3.03188 2.40781
rclavicle 6.75868e-015 1.27222e-014
rhumerus 5.78893 -5.59005 -66.4631
rradius 96.0239
rwrist -2.44994
rhand -35.9756 -2.4304
rfingers 7.12502
rthumb -9.08623 -32.2147
lclavicle 6.75868e-015 1.27222e-014
lhumerus 28.6615 -3.00501 80.4854
lradius 75.0892
lwrist 37.8417
lhand -11.5624 31.0998
lfingers 7.12502
lthumb 14.4787 60.5747
rfemur -14.2048 -4.46833 19.0408
rtibia 19.067
rfoot -3.54856 -11.7908
rtoes 12.6493
lfemur -73.3716 -2.80932 -33.0179
ltibia 78.9436
lfoot -20.1184 -8.26701
ltoes -0.497326
